<svg width="89" height="86" viewBox="0 0 89 86" fill="none" xmlns="http://www.w3.org/2000/svg">
<path d="M77.5288 61.7659H66.7725V51.0096C66.7725 50.3794 66.2631 49.87 65.6328 49.87C65.0026 49.87 64.4932 50.3794 64.4932 51.0096V61.7659H53.7369C53.1067 61.7659 52.5972 62.2753 52.5972 62.9056C52.5972 63.5358 53.1067 64.0453 53.7369 64.0453H64.4932V74.8015C64.4932 75.4318 65.0026 75.9412 65.6328 75.9412C66.2631 75.9412 66.7725 75.4318 66.7725 74.8015V64.0453H77.5288C78.159 64.0453 78.6685 63.5358 78.6685 62.9056C78.6685 62.2753 78.1579 61.7659 77.5288 61.7659ZM74.2499 41.4728C71.8635 40.5121 69.3505 39.9913 66.7725 39.8659V28.5284C66.7725 26.4291 65.0653 24.7219 62.966 24.7219H3.80538C1.70724 24.7219 0 26.4291 0 28.5284V41.4694C0 43.5676 1.70724 45.2748 3.80538 45.2748H50.7475C49.6398 46.2093 48.6163 47.2419 47.7 48.369H3.80538C1.70724 48.369 0 50.0763 0 52.1755V65.1166C0 67.2159 1.70724 68.9231 3.80538 68.9231H43.3613C46.019 78.7437 54.9837 86 65.634 86C78.3699 86 88.7307 75.6403 88.7307 62.9056C88.7295 53.4235 83.0448 45.0104 74.2499 41.4728ZM3.80538 42.9966C2.9643 42.9966 2.27935 42.3116 2.27935 41.4706V28.5284C2.27935 27.6862 2.9643 27.0012 3.80538 27.0012H62.9671C63.8094 27.0012 64.4943 27.6862 64.4943 28.5284V39.8647C60.6832 40.0528 57.0944 41.1583 53.9637 42.9966H3.80538ZM42.8678 66.6449H3.80538C2.9643 66.6449 2.27935 65.9599 2.27935 65.1177V52.1767C2.27935 51.3345 2.9643 50.6495 3.80538 50.6495H46.0726C44.3266 53.428 43.1402 56.602 42.7139 60.0382C42.5965 60.9807 42.5373 61.9471 42.5373 62.9079C42.5373 64.1832 42.6684 65.4254 42.8678 66.6449ZM65.6328 83.7218C55.7234 83.7218 47.4219 76.7561 45.3352 67.4666C45.3215 67.4187 45.3181 67.3674 45.2976 67.323C44.9887 65.8984 44.8155 64.4225 44.8155 62.9067C44.8155 62.0394 44.8691 61.1687 44.9751 60.3185C46.2618 49.927 55.1421 42.0905 65.6317 42.0905C68.3179 42.0905 70.9301 42.5931 73.3975 43.5869C81.3251 46.7746 86.4479 54.3592 86.4479 62.9079C86.4502 74.3844 77.1105 83.7218 65.6328 83.7218ZM9.14705 12.2618C10.2411 12.2618 11.1324 11.3706 11.1324 10.2765C11.1324 9.18237 10.2411 8.29115 9.14705 8.29115C8.05296 8.29115 7.16173 9.18237 7.16173 10.2765C7.16173 11.3706 8.05296 12.2618 9.14705 12.2618ZM9.14705 9.98243C9.30888 9.98243 9.44108 10.1146 9.44108 10.2765C9.44108 10.6001 8.85301 10.6001 8.85301 10.2765C8.85301 10.1146 8.98521 9.98243 9.14705 9.98243ZM25.6724 12.2618C26.7664 12.2618 27.6577 11.3706 27.6577 10.2765C27.6577 9.18237 26.7664 8.29115 25.6724 8.29115C24.5783 8.29115 23.687 9.18237 23.687 10.2765C23.687 11.3706 24.5783 12.2618 25.6724 12.2618ZM25.6724 9.98243C25.8342 9.98243 25.9664 10.1146 25.9664 10.2765C25.9664 10.6001 25.3783 10.6001 25.3783 10.2765C25.3783 10.1146 25.5105 9.98243 25.6724 9.98243ZM17.4097 12.2618C18.5038 12.2618 19.395 11.3706 19.395 10.2765C19.395 9.18237 18.5038 8.29115 17.4097 8.29115C16.3156 8.29115 15.4244 9.18237 15.4244 10.2765C15.4244 11.3706 16.3156 12.2618 17.4097 12.2618ZM17.4097 9.98243C17.5715 9.98243 17.7037 10.1146 17.7037 10.2765C17.7037 10.6001 17.1157 10.6001 17.1157 10.2765C17.1157 10.1146 17.2479 9.98243 17.4097 9.98243ZM17.4097 33.0142C16.3156 33.0142 15.4244 33.9054 15.4244 34.9995C15.4244 36.0936 16.3156 36.9848 17.4097 36.9848C18.5038 36.9848 19.395 36.0936 19.395 34.9995C19.395 33.9054 18.5049 33.0142 17.4097 33.0142ZM17.1157 34.9995C17.1157 34.8376 17.2479 34.7054 17.4097 34.7054C17.5715 34.7054 17.7037 34.8376 17.7037 34.9995C17.7037 35.3231 17.1157 35.3231 17.1157 34.9995ZM25.6724 33.0142C24.5783 33.0142 23.687 33.9054 23.687 34.9995C23.687 36.0936 24.5783 36.9848 25.6724 36.9848C26.7664 36.9848 27.6577 36.0936 27.6577 34.9995C27.6577 33.9054 26.7676 33.0142 25.6724 33.0142ZM25.3783 34.9995C25.3783 34.8376 25.5105 34.7054 25.6724 34.7054C25.8342 34.7054 25.9664 34.8376 25.9664 34.9995C25.9664 35.3231 25.3783 35.3231 25.3783 34.9995ZM9.14705 56.6613C8.05296 56.6613 7.16173 57.5514 7.16173 58.6466C7.16173 59.7419 8.05296 60.6319 9.14705 60.6319C10.2411 60.6319 11.1324 59.7419 11.1324 58.6466C11.1324 57.5514 10.2423 56.6613 9.14705 56.6613ZM8.85301 58.6478C8.85301 58.4848 8.98521 58.3537 9.14705 58.3537C9.30888 58.3537 9.44108 58.4848 9.44108 58.6478C9.44108 58.9726 8.85301 58.9726 8.85301 58.6478ZM17.4097 56.6613C16.3156 56.6613 15.4244 57.5514 15.4244 58.6466C15.4244 59.7419 16.3156 60.6319 17.4097 60.6319C18.5038 60.6319 19.395 59.7419 19.395 58.6466C19.395 57.5514 18.5049 56.6613 17.4097 56.6613ZM17.1157 58.6478C17.1157 58.4848 17.2479 58.3537 17.4097 58.3537C17.5715 58.3537 17.7037 58.4848 17.7037 58.6478C17.7037 58.9726 17.1157 58.9726 17.1157 58.6478ZM9.14705 33.0142C8.05296 33.0142 7.16173 33.9054 7.16173 34.9995C7.16173 36.0936 8.05296 36.9848 9.14705 36.9848C10.2411 36.9848 11.1324 36.0936 11.1324 34.9995C11.1324 33.9054 10.2423 33.0142 9.14705 33.0142ZM8.85301 34.9995C8.85301 34.8376 8.98521 34.7054 9.14705 34.7054C9.30888 34.7054 9.44108 34.8376 9.44108 34.9995C9.44108 35.3231 8.85301 35.3231 8.85301 34.9995ZM25.6724 56.6613C24.5783 56.6613 23.687 57.5514 23.687 58.6466C23.687 59.7419 24.5783 60.6319 25.6724 60.6319C26.7664 60.6319 27.6577 59.7419 27.6577 58.6466C27.6577 57.5514 26.7676 56.6613 25.6724 56.6613ZM25.3783 58.6478C25.3783 58.4848 25.5105 58.3537 25.6724 58.3537C25.8342 58.3537 25.9664 58.4848 25.9664 58.6478C25.9664 58.9726 25.3783 58.9726 25.3783 58.6478ZM3.80538 20.5529H62.9671C65.0664 20.5529 66.7737 18.8457 66.7737 16.7464V3.80538C66.7737 1.70724 65.0664 0 62.9671 0H3.80538C1.70724 0 0 1.70724 0 3.80538V16.7464C0 18.8457 1.70724 20.5529 3.80538 20.5529ZM2.27935 3.80538C2.27935 2.9643 2.9643 2.27935 3.80538 2.27935H62.9671C63.8094 2.27935 64.4943 2.9643 64.4943 3.80538V16.7464C64.4943 17.5886 63.8094 18.2736 62.9671 18.2736H3.80538C2.9643 18.2736 2.27935 17.5886 2.27935 16.7464V3.80538Z" fill="#F7812D"/>
</svg>
