<svg width="86" height="86" viewBox="0 0 86 86" fill="none" xmlns="http://www.w3.org/2000/svg">
<path d="M35.2905 59.125H14.4283C5.93336 59.125 0 65.0748 0 73.5936V84.6562C0 85.0126 0.141573 85.3544 0.393575 85.6064C0.645577 85.8584 0.987365 86 1.34375 86C1.70013 86 2.04192 85.8584 2.29392 85.6064C2.54593 85.3544 2.6875 85.0126 2.6875 84.6562V73.5936C2.6875 66.5471 7.40571 61.8125 14.4283 61.8125H35.2905C42.313 61.8125 47.0312 66.5471 47.0312 73.5936V84.6562C47.0312 85.0126 47.1728 85.3544 47.4248 85.6064C47.6768 85.8584 48.0186 86 48.375 86C48.7314 86 49.0732 85.8584 49.3252 85.6064C49.5772 85.3544 49.7188 85.0126 49.7188 84.6562V73.5936C49.7188 65.0748 43.7854 59.125 35.2905 59.125Z" fill="#F7812D"/>
<path d="M12.0938 43.6719C12.0938 46.1967 12.8424 48.6648 14.2451 50.7641C15.6479 52.8634 17.6416 54.4996 19.9742 55.4658C22.3068 56.432 24.8735 56.6848 27.3498 56.1922C29.8261 55.6996 32.1007 54.4838 33.886 52.6985C35.6713 50.9132 36.8871 48.6386 37.3797 46.1623C37.8723 43.686 37.6195 41.1193 36.6533 38.7867C35.6871 36.4541 34.0509 34.4603 31.9516 33.0576C29.8523 31.6549 27.3842 30.9063 24.8594 30.9063C23.1829 30.906 21.5228 31.2361 19.9739 31.8775C18.425 32.519 17.0177 33.4593 15.8322 34.6447C14.6468 35.8302 13.7065 37.2375 13.065 38.7864C12.4236 40.3353 12.0935 41.9954 12.0938 43.6719ZM34.9375 43.6719C34.9375 45.6651 34.3464 47.6136 33.239 49.271C32.1316 50.9283 30.5576 52.2201 28.7161 52.9828C26.8746 53.7456 24.8482 53.9452 22.8932 53.5564C20.9383 53.1675 19.1425 52.2076 17.7331 50.7982C16.3236 49.3887 15.3638 47.593 14.9749 45.638C14.586 43.6831 14.7856 41.6567 15.5484 39.8151C16.3112 37.9736 17.6029 36.3996 19.2603 35.2922C20.9176 34.1848 22.8661 33.5938 24.8594 33.5938C27.5313 33.5968 30.093 34.6595 31.9823 36.5489C33.8717 38.4383 34.9345 40.9999 34.9375 43.6719Z" fill="#F7812D"/>
<path d="M10.75 77.9375C10.3936 77.9375 10.0518 78.0791 9.79984 78.3311C9.54785 78.5831 9.40627 78.9249 9.40625 79.2812V84.6562C9.40625 85.0126 9.54782 85.3544 9.79983 85.6064C10.0518 85.8584 10.3936 86 10.75 86C11.1064 86 11.4482 85.8584 11.7002 85.6064C11.9522 85.3544 12.0938 85.0126 12.0938 84.6562V79.2812C12.0937 78.9249 11.9522 78.5831 11.7002 78.3311C11.4482 78.0791 11.1064 77.9375 10.75 77.9375Z" fill="#F7812D"/>
<path d="M38.9688 77.9375C38.6124 77.9375 38.2706 78.0791 38.0186 78.3311C37.7666 78.5831 37.625 78.9249 37.625 79.2812V84.6562C37.625 85.0126 37.7666 85.3544 38.0186 85.6064C38.2706 85.8584 38.6124 86 38.9688 86C39.3251 86 39.6669 85.8584 39.9189 85.6064C40.1709 85.3544 40.3125 85.0126 40.3125 84.6562V79.2812C40.3125 78.9249 40.1709 78.5831 39.9189 78.3311C39.6669 78.0791 39.3251 77.9375 38.9688 77.9375Z" fill="#F7812D"/>
<path d="M74.4324 19.4949C73.1242 20.6926 71.5805 21.6044 69.9001 22.1719H74.189C79.7313 22.1719 83.3125 25.6514 83.3125 31.0362V40.3125C83.3125 40.6689 83.4541 41.0107 83.7061 41.2627C83.9581 41.5147 84.2999 41.6563 84.6562 41.6563C85.0126 41.6563 85.3544 41.5147 85.6064 41.2627C85.8584 41.0107 86 40.6689 86 40.3125V31.0362C86 24.3157 81.2543 19.6062 74.4324 19.4949Z" fill="#F7812D"/>
<path d="M61.7874 22.1719C60.107 21.6044 58.5633 20.6926 57.2551 19.4949C50.4332 19.6062 45.6875 24.3157 45.6875 31.0362V40.3125C45.6875 40.6689 45.8291 41.0107 46.0811 41.2627C46.3331 41.5147 46.6749 41.6563 47.0312 41.6563C47.3876 41.6563 47.7294 41.5147 47.9814 41.2627C48.2334 41.0107 48.375 40.6689 48.375 40.3125V31.0362C48.375 25.6514 51.9561 22.1719 57.4985 22.1719H61.7874Z" fill="#F7812D"/>
<path d="M65.8438 20.1563C67.837 20.1563 69.7855 19.5652 71.4429 18.4578C73.1002 17.3504 74.3919 15.7764 75.1547 13.9349C75.9175 12.0933 76.1171 10.0669 75.7282 8.11199C75.3394 6.15702 74.3795 4.36127 72.9701 2.95182C71.5606 1.54237 69.7649 0.58252 67.8099 0.193653C65.8549 -0.195214 63.8286 0.00436671 61.987 0.767156C60.1455 1.52995 58.5715 2.82168 57.4641 4.47902C56.3567 6.13636 55.7656 8.08486 55.7656 10.0781C55.7654 11.4017 56.026 12.7123 56.5324 13.9351C57.0388 15.1579 57.7812 16.269 58.717 17.2048C59.6529 18.1407 60.764 18.8831 61.9868 19.3895C63.2096 19.8959 64.5202 20.1564 65.8438 20.1563ZM65.8438 2.6875C67.3055 2.6875 68.7344 3.12096 69.9498 3.93305C71.1651 4.74514 72.1124 5.8994 72.6718 7.24986C73.2312 8.60032 73.3775 10.0863 73.0924 11.52C72.8072 12.9536 72.1033 14.2705 71.0697 15.3041C70.0361 16.3377 68.7192 17.0416 67.2856 17.3267C65.852 17.6119 64.3659 17.4656 63.0155 16.9062C61.665 16.3468 60.5108 15.3995 59.6987 14.1841C58.8866 12.9688 58.4531 11.5399 58.4531 10.0781C58.4553 8.11869 59.2347 6.24015 60.6202 4.85461C62.0058 3.46908 63.8843 2.68972 65.8438 2.6875Z" fill="#F7812D"/>
<path d="M56.4375 34.9375C56.4375 34.5811 56.2959 34.2393 56.0439 33.9873C55.7919 33.7353 55.4501 33.5938 55.0938 33.5938C54.7374 33.5938 54.3956 33.7353 54.1436 33.9873C53.8916 34.2393 53.75 34.5811 53.75 34.9375V40.3125C53.75 40.6689 53.8916 41.0107 54.1436 41.2627C54.3956 41.5147 54.7374 41.6562 55.0938 41.6562C55.4501 41.6562 55.7919 41.5147 56.0439 41.2627C56.2959 41.0107 56.4375 40.6689 56.4375 40.3125V34.9375Z" fill="#F7812D"/>
<path d="M77.9375 40.3125V34.9375C77.9375 34.5811 77.7959 34.2393 77.5439 33.9873C77.2919 33.7353 76.9501 33.5938 76.5938 33.5938C76.2374 33.5938 75.8956 33.7353 75.6436 33.9873C75.3916 34.2393 75.25 34.5811 75.25 34.9375V40.3125C75.25 40.6689 75.3916 41.0107 75.6436 41.2627C75.8956 41.5147 76.2374 41.6562 76.5938 41.6562C76.9501 41.6562 77.2919 41.5147 77.5439 41.2627C77.7959 41.0107 77.9375 40.6689 77.9375 40.3125Z" fill="#F7812D"/>
<path d="M3.96563 21.6453H13.6744L23.7912 26.732C24.026 26.847 24.2889 26.8922 24.5486 26.8621C24.8083 26.8321 25.054 26.7282 25.2563 26.5627C25.4574 26.3947 25.6049 26.1716 25.6808 25.9208C25.7567 25.6701 25.7576 25.4026 25.6835 25.1513L24.6507 21.6453H25.5969C26.6473 21.6451 27.6548 21.2281 28.3983 20.486C29.1418 19.7438 29.5604 18.7371 29.5625 17.6866V3.95875C29.5604 2.90826 29.1418 1.90149 28.3983 1.15932C27.6549 0.41716 26.6474 0.00022576 25.5969 0L3.96563 0C2.91514 0.00022576 1.90764 0.41716 1.16419 1.15932C0.420736 1.90149 0.00205162 2.90826 0 3.95875L0 17.6866C0.00205162 18.7371 0.420736 19.7438 1.16419 20.486C1.90764 21.2282 2.91514 21.6451 3.96563 21.6453ZM2.6875 3.95875C2.68879 3.6208 2.82409 3.29716 3.0637 3.05884C3.30332 2.82051 3.62768 2.68697 3.96563 2.6875H25.5969C25.9348 2.68697 26.2592 2.82051 26.4988 3.05884C26.7384 3.29716 26.8737 3.6208 26.875 3.95875V17.6866C26.8737 18.0245 26.7384 18.3482 26.4988 18.5865C26.2592 18.8248 25.9348 18.9584 25.5969 18.9578H22.8536C22.6447 18.9578 22.4386 19.0065 22.2518 19.1001C22.065 19.1937 21.9026 19.3295 21.7775 19.4969C21.6524 19.6642 21.5681 19.8584 21.5312 20.064C21.4943 20.2697 21.5058 20.4811 21.5649 20.6815L22.2296 22.9389L14.5969 19.1009C14.4096 19.0068 14.2029 18.9578 13.9932 18.9578H3.96563C3.62768 18.9584 3.30332 18.8248 3.0637 18.5865C2.82409 18.3482 2.68879 18.0245 2.6875 17.6866V3.95875Z" fill="#F7812D"/>
<path d="M82.0344 47.0312H60.4031C59.3526 47.0315 58.3451 47.4484 57.6017 48.1906C56.8582 48.9327 56.4396 49.9395 56.4375 50.99V64.7178C56.4396 65.7683 56.8582 66.7751 57.6017 67.5173C58.3451 68.2594 59.3526 68.6764 60.4031 68.6766H61.3493L60.3165 72.1826C60.2424 72.4339 60.2433 72.7013 60.3192 72.9521C60.3951 73.2028 60.5426 73.4259 60.7436 73.5939C60.9466 73.7583 61.1922 73.8615 61.4516 73.8915C61.7111 73.9215 61.9737 73.877 62.2088 73.7632L72.3256 68.6766H82.0344C83.0849 68.6764 84.0924 68.2594 84.8358 67.5173C85.5793 66.7751 85.998 65.7683 86 64.7178V50.99C85.9979 49.9395 85.5793 48.9327 84.8358 48.1906C84.0924 47.4484 83.0849 47.0315 82.0344 47.0312ZM83.3125 64.7178C83.3112 65.0558 83.1759 65.3794 82.9363 65.6177C82.6967 65.8561 82.3723 65.9896 82.0344 65.9891H72.0068C71.7971 65.989 71.5904 66.038 71.4031 66.1321L63.7704 69.9701L64.435 67.7127C64.4942 67.5123 64.5057 67.3009 64.4688 67.0953C64.4319 66.8896 64.3476 66.6954 64.2225 66.5281C64.0974 66.3608 63.935 66.2249 63.7482 66.1314C63.5614 66.0378 63.3553 65.9891 63.1464 65.9891H60.4031C60.0652 65.9896 59.7408 65.8561 59.5012 65.6177C59.2616 65.3794 59.1263 65.0558 59.125 64.7178V50.99C59.1263 50.652 59.2616 50.3284 59.5012 50.0901C59.7408 49.8518 60.0652 49.7182 60.4031 49.7188H82.0344C82.3723 49.7182 82.6967 49.8518 82.9363 50.0901C83.1759 50.3284 83.3112 50.652 83.3125 50.99V64.7178Z" fill="#F7812D"/>
</svg>
