<svg width="106" height="79" viewBox="0 0 106 79" fill="none" xmlns="http://www.w3.org/2000/svg">
<path d="M44.3355 40.9547C42.9851 46.475 41.6348 51.5477 40.2845 56.1728C39.0842 60.7979 37.5088 64.8262 35.5584 68.2578C33.758 71.5401 31.5074 74.1511 28.8068 76.0907C26.1062 78.0302 22.6553 79 18.4544 79C13.2031 79 8.77707 77.3588 5.17622 74.0765C1.72541 70.7941 0 66.6166 0 61.5439C0 59.6043 0.225053 57.814 0.675159 56.1728C1.12527 54.3824 1.87544 52.5175 2.92569 50.5779C4.12597 48.6383 5.62633 46.5496 7.42675 44.3116C9.37721 41.9245 11.7028 39.1643 14.4034 36.0312L45.2357 0L53.3376 4.25212L44.3355 40.9547ZM96.9979 40.9547C95.6476 46.475 94.2972 51.5477 92.9469 56.1728C91.7466 60.7979 90.1713 64.8262 88.2208 68.2578C86.4204 71.5401 84.1698 74.1511 81.4692 76.0907C78.7686 78.0302 75.3178 79 71.1168 79C65.8655 79 61.4395 77.3588 57.8386 74.0765C54.3878 70.7941 52.6624 66.6166 52.6624 61.5439C52.6624 59.6043 52.8875 57.814 53.3376 56.1728C53.7877 54.3824 54.5379 52.5175 55.5881 50.5779C56.7884 48.6383 58.2887 46.5496 60.0892 44.3116C62.0396 41.9245 64.3652 39.1643 67.0658 36.0312L97.8981 0L106 4.25212L96.9979 40.9547Z" fill="#1D2DBF"/>
</svg>
