<svg width="290" height="239" viewBox="0 0 290 239" fill="none" xmlns="http://www.w3.org/2000/svg">
<path d="M176.59 206.628H180.989L176.664 212.854L176.59 206.628Z" fill="#0A1045" stroke="#0A1045" stroke-width="3"/>
<path d="M280.958 184.003H9.05655C5.187 184.003 2.05518 180.872 2.05518 177.002V9.00154C2.05518 5.13198 5.187 2 9.05655 2H280.958C284.828 2 287.96 5.13198 287.96 9.00154V177.002C287.96 180.872 284.828 184.003 280.958 184.003Z" stroke="#0A1045" stroke-width="3" stroke-miterlimit="10" stroke-linecap="round" stroke-linejoin="round"/>
<path d="M9.82764 65.2339V172.576H160.036" stroke="#0A1045" stroke-width="3" stroke-miterlimit="10" stroke-linecap="round" stroke-linejoin="round"/>
<path d="M105.856 9.73901L279.255 10.2487V155.233" stroke="#0A1045" stroke-width="3" stroke-miterlimit="10" stroke-linecap="round" stroke-linejoin="round"/>
<path d="M113.722 184.003V217.3H128.154" stroke="#0A1045" stroke-width="3" stroke-miterlimit="10" stroke-linecap="round" stroke-linejoin="round"/>
<path d="M174.495 184.003V217.3" stroke="#0A1045" stroke-width="3" stroke-miterlimit="10" stroke-linecap="round" stroke-linejoin="round"/>
<path d="M174.495 205.128H200.147C201.354 205.128 202.454 205.799 203.011 206.872L212.467 225.133C213.493 227.112 212.057 229.466 209.831 229.466H79.1714C76.9583 229.466 75.5232 227.132 76.5224 225.153L85.7704 206.892C86.3203 205.806 87.4336 205.122 88.6475 205.122H113.722" stroke="#0A1045" stroke-width="3" stroke-miterlimit="10" stroke-linecap="round" stroke-linejoin="round"/>
<path d="M76.2002 226.354V229.68C76.2002 232 78.0847 233.885 80.4051 233.885H208.603C210.924 233.885 212.808 232 212.808 229.68V226.354" stroke="#0A1045" stroke-width="3" stroke-miterlimit="10" stroke-linecap="round" stroke-linejoin="round"/>
<path d="M208.906 215.4H210.884C211.528 215.4 212.12 215.744 212.435 216.301L212.436 216.303L222.046 233.25L222.046 233.251C222.999 234.929 221.778 237.005 219.853 236.992L219.852 236.992L84.1703 236.167C84.1696 236.167 84.1688 236.167 84.168 236.167C83.8316 236.162 83.5777 235.863 83.6214 235.538C83.6215 235.537 83.6215 235.537 83.6216 235.537L83.6433 235.38L211.426 234.909L212.566 234.905L212.867 233.805L214.242 228.782L214.379 228.279L214.175 227.799L208.906 215.4Z" fill="#0A1045" stroke="#0A1045" stroke-width="3"/>
<path d="M176.118 154.603H32.207V37.6106H257.889V154.603H233.357" stroke="#0A1045" stroke-width="3" stroke-miterlimit="10" stroke-linecap="round" stroke-linejoin="round"/>
<path d="M252.825 28.7852H37.2767C34.4802 28.7852 32.2134 31.0519 32.2134 33.8485V37.6106H257.895V33.8485C257.888 31.0519 255.622 28.7852 252.825 28.7852Z" fill="#0A1045" stroke="#0A1045" stroke-width="3" stroke-miterlimit="10" stroke-linecap="round" stroke-linejoin="round"/>
<path d="M40.2969 33.4527C40.2969 33.8798 39.9507 34.2261 39.5235 34.2261C39.0962 34.2261 38.75 33.8798 38.75 33.4527C38.75 33.0255 39.0964 32.6792 39.5235 32.6792C39.9506 32.6792 40.2969 33.0255 40.2969 33.4527Z" fill="#0A1045" stroke="#0A1045" stroke-width="3"/>
<path d="M47.6739 33.4527C47.6739 33.8798 47.3276 34.2261 46.9004 34.2261C46.4732 34.2261 46.127 33.8798 46.127 33.4527C46.127 33.0255 46.4733 32.6792 46.9004 32.6792C47.3275 32.6792 47.6739 33.0255 47.6739 33.4527Z" fill="#0A1045" stroke="#0A1045" stroke-width="3"/>
<path d="M55.7818 33.4527C55.7818 33.8798 55.4356 34.2261 55.0083 34.2261C54.5811 34.2261 54.2349 33.8798 54.2349 33.4527C54.2349 33.0255 54.5812 32.6792 55.0083 32.6792C55.4354 32.6792 55.7818 33.0255 55.7818 33.4527Z" fill="#0A1045" stroke="#0A1045" stroke-width="3"/>
<path d="M176.561 116.792C176.299 116.692 176.044 116.947 176.138 117.208L192.609 162.677C192.709 162.966 193.119 162.945 193.192 162.65L197.96 144.798C198.014 144.57 198.303 144.49 198.47 144.651L222.486 168.418C222.901 168.827 223.565 168.82 223.974 168.404L227.515 164.776C227.918 164.361 227.911 163.696 227.495 163.294L203.245 139.628C203.077 139.467 203.151 139.185 203.372 139.118L220.554 133.947C220.829 133.867 220.842 133.478 220.574 133.371L176.561 116.792Z" fill="#0A1045"/>
<path d="M104.635 73.664C104.736 73.4024 104.481 73.1477 104.219 73.2416L58.7504 89.7122C58.462 89.8128 58.482 90.222 58.7771 90.2957L76.6294 95.0639C76.8574 95.1175 76.9379 95.4059 76.777 95.5735L53.0097 119.589C52.6006 120.005 52.6073 120.669 53.0231 121.078L56.6513 124.619C57.0671 125.021 57.731 125.014 58.1333 124.599L81.8 100.349C81.961 100.181 82.2427 100.255 82.3097 100.476L87.4803 117.658C87.5608 117.933 87.9497 117.946 88.057 117.678L104.635 73.664Z" stroke="#0A1045" stroke-width="3" stroke-miterlimit="10" stroke-linecap="round" stroke-linejoin="round"/>
<path d="M96.5068 65.7437L101.087 68.7013" stroke="#0A1045" stroke-width="3" stroke-miterlimit="10" stroke-linecap="round" stroke-linejoin="round"/>
<path d="M105.668 60.7139L105.084 66.1394" stroke="#0A1045" stroke-width="3" stroke-miterlimit="10" stroke-linecap="round" stroke-linejoin="round"/>
<path d="M109.417 68.5669L113.702 65.2339" stroke="#0A1045" stroke-width="3" stroke-miterlimit="10" stroke-linecap="round" stroke-linejoin="round"/>
<path d="M110.087 74.2004L114.373 76.1654" stroke="#0A1045" stroke-width="3" stroke-miterlimit="10" stroke-linecap="round" stroke-linejoin="round"/>
</svg>
