<svg width="84" height="86" viewBox="0 0 84 86" fill="none" xmlns="http://www.w3.org/2000/svg">
<path d="M5.375 86H78.3968C81.3606 86 83.7718 83.5894 83.7718 80.625V5.375C83.7718 2.41123 81.3606 0 78.3968 0H5.375C2.41123 0 0 2.41123 0 5.375V80.625C0 83.5894 2.41123 86 5.375 86ZM2.6875 5.375C2.6875 3.89284 3.89284 2.6875 5.375 2.6875H78.3968C79.8789 2.6875 81.0843 3.89284 81.0843 5.375V80.625C81.0843 82.1065 79.8789 83.3125 78.3968 83.3125H5.375C3.89284 83.3125 2.6875 82.1065 2.6875 80.625V5.375Z" fill="#F7812D"/>
<path d="M7.98181 10.6882H51.2338C51.9758 10.6882 52.5775 10.0865 52.5775 9.34448C52.5775 8.60246 51.9758 8.00073 51.2338 8.00073H7.98181C7.23979 8.00073 6.63806 8.60246 6.63806 9.34448C6.63806 10.0865 7.23979 10.6882 7.98181 10.6882Z" fill="#F7812D"/>
<path d="M57.0267 10.6882H66.4967C67.2387 10.6882 67.8404 10.0865 67.8404 9.34448C67.8404 8.60246 67.2387 8.00073 66.4967 8.00073H57.0267C56.2847 8.00073 55.683 8.60246 55.683 9.34448C55.683 10.0865 56.2846 10.6882 57.0267 10.6882Z" fill="#F7812D"/>
<path d="M72.4989 10.6882H75.79C76.532 10.6882 77.1338 10.0865 77.1338 9.34448C77.1338 8.60246 76.532 8.00073 75.79 8.00073H72.4989C71.7569 8.00073 71.1552 8.60246 71.1552 9.34448C71.1552 10.0865 71.7569 10.6882 72.4989 10.6882Z" fill="#F7812D"/>
<path d="M75.79 75.3118H32.5381C31.7961 75.3118 31.1943 75.9128 31.1943 76.6555C31.1943 77.3982 31.7961 77.9993 32.5381 77.9993H75.79C76.5321 77.9993 77.1338 77.3982 77.1338 76.6555C77.1338 75.9128 76.5321 75.3118 75.79 75.3118Z" fill="#F7812D"/>
<path d="M26.7451 75.3118H17.2751C16.5331 75.3118 15.9314 75.9128 15.9314 76.6555C15.9314 77.3982 16.5331 77.9993 17.2751 77.9993H26.7451C27.4871 77.9993 28.0888 77.3982 28.0888 76.6555C28.0888 75.9128 27.4872 75.3118 26.7451 75.3118Z" fill="#F7812D"/>
<path d="M7.98181 77.9993H11.2729C12.0149 77.9993 12.6167 77.3982 12.6167 76.6555C12.6167 75.9128 12.0149 75.3118 11.2729 75.3118H7.98181C7.23979 75.3118 6.63806 75.9128 6.63806 76.6555C6.63806 77.3982 7.23979 77.9993 7.98181 77.9993Z" fill="#F7812D"/>
<path d="M8.8656 47.2454V63.6736C8.8656 64.4163 9.46733 65.0173 10.2094 65.0173H36.1539C36.896 65.0173 37.4977 64.4163 37.4977 63.6736V47.2454C37.4977 43.0462 34.225 39.5871 30.0474 39.368C29.6537 39.3404 29.2895 39.4927 29.02 39.7669L23.1818 45.6918L17.3436 39.7669C17.0739 39.4927 16.7131 39.3391 16.3162 39.368C12.1383 39.5871 8.8656 43.0462 8.8656 47.2454ZM11.5531 47.2454C11.5531 44.6721 13.4133 42.5213 15.8829 42.1145L22.2244 48.5498C22.7296 49.0616 23.6337 49.0616 24.1389 48.5498L30.4804 42.1145C32.95 42.5212 34.8102 44.672 34.8102 47.2454V62.3298H11.5531V47.2454Z" fill="#F7812D"/>
<path d="M23.1816 38.7836C28.0835 38.7836 32.0721 34.7917 32.0721 29.8839C32.0721 24.9761 28.0835 20.9829 23.1816 20.9829C18.2797 20.9829 14.2917 24.9761 14.2917 29.8839C14.2917 34.7917 18.2796 38.7836 23.1816 38.7836ZM23.1816 23.6703C26.602 23.6703 29.3846 26.4575 29.3846 29.8838C29.3846 33.3087 26.602 36.0959 23.1816 36.0959C19.7619 36.0959 16.9792 33.3087 16.9792 29.8838C16.9791 26.4576 19.7618 23.6703 23.1816 23.6703Z" fill="#F7812D"/>
<path d="M57.2196 38.3586C54.6628 38.3586 52.5828 40.4412 52.5828 43.0001C52.5828 45.559 54.6628 47.6415 57.2196 47.6415C59.7765 47.6415 61.8565 45.559 61.8565 43.0001C61.8565 40.4412 59.7767 38.3586 57.2196 38.3586ZM57.2196 44.954C56.1449 44.954 55.2703 44.0775 55.2703 43.0001C55.2703 41.9227 56.1449 41.0461 57.2196 41.0461C58.2944 41.0461 59.169 41.9227 59.169 43.0001C59.169 44.0775 58.2944 44.954 57.2196 44.954Z" fill="#F7812D"/>
<path d="M44.3989 18.4082C43.6569 18.4082 43.0552 19.0093 43.0552 19.752C43.0552 28.9808 43.0552 56.1922 43.0552 66.2479C43.0552 66.9905 43.6569 67.5916 44.3989 67.5916C45.1409 67.5916 45.7427 66.9905 45.7427 66.2479V61.0893H73.5625C74.3045 61.0893 74.9062 60.4883 74.9062 59.7456V26.2542C74.9062 25.5115 74.3045 24.9105 73.5625 24.9105H45.7427V19.752C45.7427 19.0093 45.1411 18.4082 44.3989 18.4082ZM45.7427 33.4519H60.9852C61.5082 35.8585 63.4051 37.7587 65.809 38.2823V47.7174C63.4049 48.2409 61.5081 50.1411 60.9852 52.5478H45.7427V33.4519ZM72.2187 27.598V58.4018H45.7427V55.2354H62.1852C62.9272 55.2354 63.529 54.6344 63.529 53.8917C63.529 51.8892 65.1549 50.2607 67.1528 50.2607C67.8948 50.2607 68.4965 49.6597 68.4965 48.917V37.0831C68.4965 36.3404 67.8948 35.7394 67.1528 35.7394C65.1549 35.7394 63.529 34.1109 63.529 32.1084C63.529 31.3657 62.9272 30.7647 62.1852 30.7647H45.7427V27.5982H72.2187V27.598Z" fill="#F7812D"/>
</svg>
