<svg width="87" height="86" viewBox="0 0 87 86" fill="none" xmlns="http://www.w3.org/2000/svg">
<path d="M82.2877 86.0001H4.58097C2.05465 86.0001 0 83.9455 0 81.4192V17.3738C0 16.4135 0.777916 15.6365 1.73737 15.6365H85.1313C86.0908 15.6365 86.8687 16.4135 86.8687 17.3738V81.4192C86.8687 83.9455 84.814 86.0001 82.2877 86.0001ZM3.47475 19.1112V81.4192C3.47475 82.0299 3.97102 82.5254 4.58097 82.5254H82.2877C82.8977 82.5254 83.3939 82.0299 83.3939 81.4192V19.1112H3.47475Z" fill="#F7812D"/>
<path d="M85.1313 19.1111H1.73737C0.777916 19.1111 0 18.334 0 17.3737V4.58097C0 2.05465 2.05465 0 4.58097 0H82.2877C84.814 0 86.8687 2.05465 86.8687 4.58097V17.3737C86.8687 18.334 86.0908 19.1111 85.1313 19.1111ZM3.47475 15.6364H83.3939V4.58097C83.3939 3.97017 82.8977 3.47475 82.2877 3.47475H4.58097C3.97102 3.47475 3.47475 3.97017 3.47475 4.58097V15.6364Z" fill="#F7812D"/>
<path d="M14.8847 11.2947C14.6591 11.2947 14.4334 11.2421 14.2247 11.1556C13.9991 11.0691 13.8073 10.9469 13.6512 10.7908C13.4952 10.6161 13.356 10.4261 13.2686 10.2174C13.1821 10.0087 13.1473 9.78303 13.1473 9.55737C13.1473 9.33172 13.1821 9.10606 13.2686 8.89737C13.373 8.67172 13.4952 8.48 13.6512 8.3239C13.8073 8.16781 13.9991 8.04565 14.2247 7.94046C14.8499 7.68087 15.6143 7.83696 16.1012 8.3239C16.2743 8.48 16.3964 8.67172 16.483 8.89737C16.5703 9.10606 16.6221 9.33172 16.6221 9.55737C16.6221 10.0087 16.4312 10.46 16.1012 10.7908C15.9443 10.9469 15.7534 11.0691 15.5447 11.1556C15.336 11.2421 15.1104 11.2947 14.8847 11.2947Z" fill="#F7812D"/>
<path d="M23.9542 11.2947C23.7107 11.2947 23.485 11.2421 23.2764 11.1555C23.0677 11.069 22.8768 10.9469 22.7199 10.7908C22.3899 10.4599 22.2168 10.0086 22.2168 9.55729C22.2168 9.33164 22.2516 9.10598 22.3381 8.8973C22.4246 8.67164 22.5638 8.47992 22.7199 8.32383C23.3629 7.68079 24.5268 7.68079 25.1698 8.32383C25.3437 8.47992 25.465 8.67164 25.5524 8.8973C25.6389 9.10598 25.6915 9.33164 25.6915 9.55729C25.6915 9.78295 25.6389 10.0086 25.5524 10.2173C25.465 10.426 25.3437 10.616 25.1698 10.7908C24.8398 11.1199 24.4055 11.2947 23.9542 11.2947Z" fill="#F7812D"/>
<path d="M33.0058 11.2947C32.7793 11.2947 32.5536 11.2422 32.345 11.1556C32.1371 11.0691 31.9454 10.9469 31.7893 10.7908C31.4593 10.46 31.2684 10.0087 31.2684 9.55738C31.2684 9.33172 31.3202 9.10607 31.4067 8.89738C31.4941 8.67172 31.6154 8.48 31.7893 8.32391C31.8589 8.23738 31.9454 8.16782 32.0497 8.11522C32.1371 8.04566 32.2415 7.99306 32.345 7.94046C32.4493 7.90653 32.5536 7.8726 32.6758 7.85394C33.2315 7.73347 33.8397 7.9235 34.2393 8.32391C34.3954 8.48 34.5345 8.67172 34.621 8.89738C34.7084 9.10607 34.7432 9.33172 34.7432 9.55738C34.7432 10.0087 34.5693 10.46 34.2393 10.7908C33.9093 11.12 33.4749 11.2947 33.0058 11.2947Z" fill="#F7812D"/>
<path d="M43.4259 66.0898C28.0856 66.0898 15.946 52.5454 15.437 51.9685C14.8568 51.3119 14.8568 50.3245 15.437 49.6679C15.946 49.091 28.0856 35.5466 43.4259 35.5466C58.7831 35.5466 70.9219 49.091 71.4308 49.6679C72.0111 50.3245 72.0111 51.3119 71.4308 51.9685C70.9219 52.5454 58.7831 66.0898 43.4259 66.0898ZM19.1518 50.8165C22.3628 53.9876 32.1406 62.615 43.4259 62.615C54.723 62.615 64.5017 53.9893 67.7143 50.8182C64.5017 47.6472 54.723 39.0214 43.4259 39.0214C32.1151 39.0214 22.3577 47.6455 19.1518 50.8165Z" fill="#F7812D"/>
<path d="M43.4344 59.3795C38.7134 59.3795 34.873 55.5383 34.873 50.8182C34.873 46.0981 38.7134 42.2585 43.4344 42.2585C48.1545 42.2585 51.9948 46.0981 51.9948 50.8182C51.9948 55.5383 48.1545 59.3795 43.4344 59.3795ZM43.4344 45.7333C40.6298 45.7333 38.3478 48.0136 38.3478 50.8182C38.3478 53.6227 40.6298 55.9047 43.4344 55.9047C46.2389 55.9047 48.5201 53.6227 48.5201 50.8182C48.5201 48.0136 46.2389 45.7333 43.4344 45.7333Z" fill="#F7812D"/>
</svg>
