<svg width="28" height="28" viewBox="0 0 28 28" fill="none" xmlns="http://www.w3.org/2000/svg">
<rect width="28" height="28" rx="14" fill="#BDBDBD"/>
<path d="M20.8326 8.45168C20.0435 7.51554 18.9487 7 17.75 7C16.0641 7 14.9968 8.05264 14.3983 8.93572C14.243 9.16487 14.1109 9.39465 14 9.61086C13.8891 9.39465 13.757 9.16487 13.6017 8.93572C13.0032 8.05264 11.9359 7 10.25 7C9.05131 7 7.95653 7.51557 7.16734 8.45171C6.41459 9.34473 6 10.5407 6 11.8194C6 13.2112 6.51978 14.5058 7.63578 15.8934C8.63319 17.1336 10.0681 18.4119 11.7297 19.8922C12.3488 20.4438 12.9891 21.0142 13.6708 21.6377L13.6912 21.6565C13.7796 21.7373 13.8898 21.7778 14 21.7778C14.1102 21.7778 14.2204 21.7373 14.3088 21.6565L14.3292 21.6377C15.0109 21.0142 15.6512 20.4438 16.2704 19.8921C17.9319 18.4119 19.3668 17.1336 20.3642 15.8934C21.4802 14.5058 22 13.2112 22 11.8194C22 10.5407 21.5854 9.34473 20.8326 8.45168ZM15.6623 19.1462C15.1285 19.6216 14.5792 20.111 14 20.6374C13.4208 20.1111 12.8715 19.6217 12.3376 19.1461C9.08578 16.2491 6.9375 14.3352 6.9375 11.8194C6.9375 10.7795 7.26891 9.81361 7.87069 9.09973C8.47937 8.37775 9.32434 7.98011 10.25 7.98011C11.5353 7.98011 12.3661 8.80792 12.8368 9.50236C13.2589 10.1252 13.4792 10.7531 13.5543 10.9941C13.6172 11.1958 13.7971 11.3323 14 11.3323C14.2029 11.3323 14.3828 11.1958 14.4457 10.9941C14.5208 10.7531 14.7411 10.1252 15.1632 9.50233C15.6339 8.80792 16.4647 7.98011 17.75 7.98011C18.6757 7.98011 19.5206 8.37775 20.1293 9.09973C20.7311 9.81361 21.0625 10.7795 21.0625 11.8194C21.0625 14.3352 18.9142 16.2491 15.6623 19.1462Z" fill="#C22033"/>
</svg>
