<svg width="91" height="90" viewBox="0 0 91 90" fill="none" xmlns="http://www.w3.org/2000/svg">
<path d="M75.9005 69.6669H75.7189C74.268 69.6669 72.9043 70.2318 71.8789 71.2587L70.9436 72.194C70.3031 69.9065 68.2218 68.2145 65.7339 68.2145C64.1465 68.2145 62.6433 68.9073 61.6092 70.1127L54.5217 78.381H47.4284C46.281 78.381 45.1598 77.9163 44.3479 77.1044L42.7198 75.4763H46.4756C49.6795 75.4763 52.2851 72.8708 52.2851 69.6669C52.2851 66.463 49.6795 63.8574 46.4756 63.8574H35.7354C32.1713 63.8574 28.7161 64.8596 25.7112 66.7621H20.3331V65.3098C20.3331 64.5066 19.6824 63.8574 18.8807 63.8574H1.45236C0.650658 63.8574 0 64.5066 0 65.3098V88.5476C0 89.3507 0.650658 89.9999 1.45236 89.9999H18.8807C19.6824 89.9999 20.3331 89.3507 20.3331 88.5476V86.7554L22.6365 88.138C24.6684 89.3565 26.9936 89.9999 29.361 89.9999H62.2454C66.5124 89.9999 70.5238 88.337 73.5418 85.3204L79.742 79.1203C80.7528 78.1095 81.3323 76.7108 81.3323 75.2803V75.0987C81.3323 72.1039 78.8952 69.6669 75.9005 69.6669ZM63.8154 72.0008C64.2961 71.4417 64.9947 71.1192 65.7339 71.1192C67.1282 71.1192 68.261 72.2521 68.261 73.6463V74.875L66.0302 77.1044C65.2198 77.9163 64.0971 78.381 62.9498 78.381H58.3472L63.8154 72.0008ZM17.4284 87.0952H2.90473V66.7621H17.4284V87.0952ZM78.4276 75.2803C78.4276 75.9454 78.1574 76.5961 77.6883 77.0667L71.4882 83.2668C69.0192 85.7344 65.7368 87.0952 62.2454 87.0952H29.361C27.5194 87.0952 25.7112 86.5942 24.131 85.6472L20.3331 83.3685V69.6669H26.1425C26.4286 69.6669 26.709 69.5812 26.9486 69.4229C29.5599 67.6829 32.5983 66.7621 35.7354 66.7621H46.4756C48.0776 66.7621 49.3803 68.0649 49.3803 69.6669C49.3803 71.2688 48.0776 72.5716 46.4756 72.5716H36.3091C35.5074 72.5716 34.8567 73.2208 34.8567 74.024C34.8567 74.8271 35.5074 75.4763 36.3091 75.4763H38.6125L42.2957 79.1581C43.6667 80.5291 45.4909 81.2858 47.4298 81.2858H62.9512C64.8901 81.2858 66.7143 80.5291 68.0853 79.1581L70.7402 76.5046C70.7417 76.5031 70.7417 76.5031 70.7431 76.5017L73.934 73.3123C74.4118 72.8345 75.0465 72.5716 75.7204 72.5716H75.9019C77.2947 72.5716 78.4276 73.7044 78.4276 75.0987V75.2803Z" fill="#F7812D"/>
<path d="M89.8315 19.5256L78.2126 0.644849C77.6839 -0.21495 76.2679 -0.21495 75.7392 0.644849L64.1203 19.5256C63.8444 19.9743 63.8327 20.535 64.0898 20.9954C64.3469 21.4558 64.8305 21.739 65.3563 21.739H69.7134V30.0247C66.248 25.8535 61.0239 23.1913 55.1897 23.1913C49.3556 23.1913 44.1314 25.8535 40.6661 30.0247V21.739H45.0232C45.5489 21.739 46.034 21.4543 46.2911 20.9954C46.5482 20.5364 46.5351 19.9743 46.2606 19.5256L34.6417 0.644849C34.113 -0.21495 32.697 -0.21495 32.1683 0.644849L20.5494 19.5256C20.2735 19.9743 20.2619 20.535 20.5189 20.9954C20.776 21.4558 21.2596 21.739 21.7854 21.739H26.1425V59.5004C26.1425 60.3035 26.7931 60.9527 27.5948 60.9527C28.3965 60.9527 29.0472 60.3035 29.0472 59.5004V20.2866C29.0472 19.4849 28.3965 18.8342 27.5948 18.8342H24.3851L33.4043 4.17699L42.4235 18.8342H39.2137C38.412 18.8342 37.7614 19.4849 37.7614 20.2866V34.8218C36.829 37.0556 36.309 39.5043 36.309 42.072C36.309 44.6427 36.829 47.0943 37.7643 49.3295C37.7643 49.3339 37.7614 49.3382 37.7614 49.344V59.5004C37.7614 60.3035 38.412 60.9527 39.2137 60.9527C40.0154 60.9527 40.6661 60.3035 40.6661 59.5004V54.1194C44.1314 58.2906 49.3556 60.9527 55.1897 60.9527C59.1213 60.9527 62.9018 59.7415 66.1202 57.4497C66.7738 56.9849 66.9263 56.0786 66.4601 55.4236C65.9953 54.77 65.0876 54.6175 64.434 55.0838C61.7108 57.0227 58.5142 58.048 55.1897 58.048C46.3811 58.048 39.2137 50.8806 39.2137 42.072C39.2137 33.2635 46.3811 26.0961 55.1897 26.0961C63.9983 26.0961 71.1657 33.2635 71.1657 42.072C71.1657 45.3979 70.1403 48.5931 68.2014 51.3163C67.7367 51.9699 67.8892 52.8762 68.5413 53.3424C68.8942 53.5936 69.3198 53.6503 69.7119 53.5588V59.5004C69.7119 60.3035 70.3626 60.9527 71.1643 60.9527C71.966 60.9527 72.6166 60.3035 72.6166 59.5004V49.344C72.6166 49.3353 72.6123 49.3295 72.6123 49.3208C73.5694 47.0377 74.0704 44.5875 74.0704 42.072C74.0704 39.5043 73.5505 37.0556 72.6181 34.8218V20.2866C72.6181 19.4849 71.9674 18.8342 71.1657 18.8342H67.956L76.9752 4.17699L85.9943 18.8342H82.7846C81.9829 18.8342 81.3323 19.4849 81.3323 20.2866V53.6909C81.3323 54.4941 81.9829 55.1433 82.7846 55.1433C83.5863 55.1433 84.237 54.4941 84.237 53.6909V21.739H88.5941C89.1198 21.739 89.6049 21.4543 89.862 20.9954C90.119 20.5364 90.1074 19.9743 89.8315 19.5256Z" fill="#F7812D"/>
<path d="M66.8087 43.5244C67.6108 43.5244 68.261 42.8741 68.261 42.072C68.261 41.2699 67.6108 40.6196 66.8087 40.6196C66.0066 40.6196 65.3563 41.2699 65.3563 42.072C65.3563 42.8741 66.0066 43.5244 66.8087 43.5244Z" fill="#F7812D"/>
<path d="M43.5709 43.5244C44.373 43.5244 45.0233 42.8741 45.0233 42.072C45.0233 41.2699 44.373 40.6196 43.5709 40.6196C42.7688 40.6196 42.1185 41.2699 42.1185 42.072C42.1185 42.8741 42.7688 43.5244 43.5709 43.5244Z" fill="#F7812D"/>
<path d="M55.1898 34.8102C56.7918 34.8102 58.0945 36.113 58.0945 37.7149C58.0945 38.5166 58.7452 39.1673 59.5469 39.1673C60.3486 39.1673 60.9993 38.5166 60.9993 37.7149C60.9993 35.0164 59.1402 32.7609 56.6422 32.1117V30.4531C56.6422 29.6514 55.9915 29.0007 55.1898 29.0007C54.3881 29.0007 53.7375 29.6514 53.7375 30.4531V32.1117C51.2394 32.7609 49.3804 35.0164 49.3804 37.7149C49.3804 40.9188 51.9859 43.5244 55.1898 43.5244C56.7918 43.5244 58.0945 44.8271 58.0945 46.4291C58.0945 48.031 56.7918 49.3338 55.1898 49.3338C53.5879 49.3338 52.2851 48.031 52.2851 46.4291C52.2851 45.6274 51.6344 44.9767 50.8327 44.9767C50.031 44.9767 49.3804 45.6274 49.3804 46.4291C49.3804 49.129 51.2394 51.3831 53.7375 52.0323V53.6909C53.7375 54.4941 54.3881 55.1433 55.1898 55.1433C55.9915 55.1433 56.6422 54.4941 56.6422 53.6909V52.0323C59.1402 51.3831 60.9993 49.129 60.9993 46.4291C60.9993 43.2252 58.3937 40.6196 55.1898 40.6196C53.5879 40.6196 52.2851 39.3169 52.2851 37.7149C52.2851 36.113 53.5879 34.8102 55.1898 34.8102Z" fill="#F7812D"/>
<path d="M82.7846 60.9528C83.5868 60.9528 84.237 60.3026 84.237 59.5005C84.237 58.6983 83.5868 58.0481 82.7846 58.0481C81.9825 58.0481 81.3323 58.6983 81.3323 59.5005C81.3323 60.3026 81.9825 60.9528 82.7846 60.9528Z" fill="#F7812D"/>
</svg>
