<svg width="50" height="50" viewBox="0 0 50 50" fill="none" xmlns="http://www.w3.org/2000/svg">
<circle cx="25" cy="25" r="25" fill="#1D2DBF"/>
<path d="M25.5 2C13.0738 2 3 12.0738 3 24.5C3 36.9262 13.0738 47 25.5 47C37.9262 47 48 36.9262 48 24.5C48 12.0738 37.9262 2 25.5 2ZM25.5 43.25C15.1449 43.25 6.75003 34.8551 6.75003 24.5C6.75003 14.1449 15.1449 5.75003 25.5 5.75003C35.8551 5.75003 44.25 14.1449 44.25 24.5C44.25 34.8551 35.8551 43.25 25.5 43.25Z" fill="white"/>
<path d="M30.5759 13.7992C29.8436 13.0669 28.6564 13.0669 27.9242 13.7992L18.5492 23.1742C17.8169 23.9064 17.8169 25.0936 18.5492 25.8259L27.9242 35.2009C28.6564 35.9331 29.8436 35.9331 30.5759 35.2009C31.3081 34.4687 31.3081 33.2814 30.5759 32.5492L22.5267 24.5L30.5759 16.4508C31.3081 15.7186 31.3081 14.5315 30.5759 13.7992Z" fill="white"/>
</svg>
