<svg width="39" height="39" viewBox="0 0 39 39" fill="none" xmlns="http://www.w3.org/2000/svg">
<path fill-rule="evenodd" clip-rule="evenodd" d="M10.8614 18.4973C10.2891 19.0623 10.2914 19.9782 10.8695 20.5459L17.7509 27.3038C18.8512 28.4018 20.501 26.7554 19.4007 25.6575L14.8021 21.0723C14.5757 20.8466 14.6552 20.6636 14.9762 20.6636L27.6637 20.6636C28.3097 20.6636 28.8333 20.1468 28.8333 19.4993C28.8333 18.8563 28.3108 18.335 27.6637 18.335L14.9762 18.335C14.6537 18.335 14.5764 18.1513 14.8021 17.9263L19.4007 13.3412C20.501 12.2438 18.8512 10.5968 17.7509 11.6948L10.8614 18.4973Z" fill="#FF8000"/>
<path d="M37 19.5C37 9.83502 29.165 2 19.5 2C9.83502 2 2 9.83502 2 19.5C2 29.165 9.83502 37 19.5 37C29.165 37 37 29.165 37 19.5Z" stroke="#FF8000" stroke-width="4"/>
</svg>
