<svg width="166" height="35" viewBox="0 0 166 35" fill="none" xmlns="http://www.w3.org/2000/svg">
<path d="M66.2046 22.3997L59.1329 2.13011H58.7671C58.2185 2.13011 57.9746 2.43446 57.9137 2.86055L53.8902 22.4606L53.2805 25.4432L51.3297 34.9997H44.502L57.365 0.0605469H66.6923L78.8847 34.9997H70.5938L67.2409 25.4432L66.2046 22.3997Z" fill="white"/>
<path d="M94.2463 34.878L88.6987 25.3824L85.041 34.878H78.8838L87.9672 24.0432L79.0667 8.76497H86.8089L91.8688 17.2867L95.2217 8.7041H100.708L92.6003 18.4432L102.171 34.8172L94.2463 34.878Z" fill="white"/>
<path d="M125.643 34.9393H111.378C105.404 34.9393 103.697 30.0698 103.697 26.7219V8.88715H110.403V27.2698C110.403 30.1915 111.195 33.235 119.059 33.235V8.88715H125.704L125.643 34.9393Z" fill="white"/>
<path d="M165.878 34.8781H158.989V15.8259C158.989 11.4433 153.32 10.7738 151.247 12.8433V34.939H144.358V16.4346C144.358 11.139 140.152 9.86071 136.006 11.9303L135.945 34.939H129.057V8.82592H135.945V10.1042C137.043 9.49549 138.994 8.21722 143.383 8.21722C148.26 8.21722 151.247 10.7738 151.247 10.7738C151.247 10.7738 153.442 8.46071 158.989 8.46071C160.452 8.46071 166 9.19114 166 16.0085L165.878 34.8781Z" fill="white"/>
<path d="M9.51012 0V19.7826L0 23.0696V0H9.51012Z" fill="#F7812D"/>
<path d="M9.51012 22.4609V34.9392H0V29.1565L9.51012 22.4609Z" fill="#F7812D"/>
<path d="M22.2508 0V6.51306L12.7407 12.5391V0H22.2508Z" fill="#F7812D"/>
<path d="M22.2508 12.66V34.9383H12.7407V15.3383L22.2508 12.66Z" fill="#F7812D"/>
<path d="M34.9921 0V20.087L25.4819 26.1739V0H34.9921Z" fill="#F7812D"/>
<path d="M25.4824 28.9131L34.9926 26.2348V34.9392H25.4824V28.9131Z" fill="#F7812D"/>
</svg>
