<svg width="34" height="35" viewBox="0 0 34 35" fill="none" xmlns="http://www.w3.org/2000/svg">
<g clip-path="url(#clip0_8426_30146)">
<path d="M17.1773 0.889404C8.04172 0.889404 0.609863 8.32127 0.609863 17.4568C0.609863 26.5924 8.04172 34.0242 17.1773 34.0242C26.3128 34.0242 33.7447 26.5924 33.7447 17.4568C33.7447 8.32127 26.3128 0.889404 17.1773 0.889404ZM25.5742 13.9459L16.6002 22.9199C16.3309 23.1891 15.9775 23.3244 15.6241 23.3244C15.2706 23.3244 14.9172 23.1891 14.648 22.9199L10.161 18.4329C9.62115 17.8931 9.62115 17.0205 10.161 16.4807C10.7008 15.9409 11.5733 15.9409 12.1132 16.4807L15.6241 19.9916L23.622 11.9937C24.1618 11.4539 25.0344 11.4539 25.5742 11.9937C26.114 12.5335 26.114 13.4061 25.5742 13.9459Z" fill="#F7812D"/>
</g>
<defs>
<clipPath id="clip0_8426_30146">
<rect width="33.1348" height="33.1348" fill="white" transform="translate(0.609863 0.889404)"/>
</clipPath>
</defs>
</svg>
