<svg width="118" height="64" viewBox="0 0 118 64" fill="none" xmlns="http://www.w3.org/2000/svg">
<path d="M93.9542 61.71H71.9683C71.4117 61.71 70.943 61.256 70.943 60.6847V59.6594H93.339C93.8956 59.6594 94.3644 59.2053 94.3644 58.6341C94.3644 58.0775 93.9103 57.6087 93.339 57.6087H70.943V22.733H106.785C107.342 22.733 107.811 22.2789 107.811 21.7077C107.811 21.693 107.796 21.693 107.796 21.693V19.6717C107.796 17.9579 106.449 16.6104 104.735 16.6104H71.9683C70.2546 16.6104 68.907 17.9579 68.907 19.6717V60.6847C68.907 62.3692 70.2838 63.746 71.9683 63.746H93.9542C94.5108 63.746 94.9796 63.292 94.9796 62.7207C94.9796 62.1641 94.5255 61.71 93.9542 61.71ZM70.943 19.6863C70.943 19.1004 71.3824 18.661 71.9683 18.661H104.749C105.335 18.661 105.775 19.1004 105.775 19.6863V20.7117H70.943V19.6863Z" fill="#F7812D"/>
<path d="M113.333 25.0327H100.267C98.1434 25.0327 96.415 26.7611 96.415 28.885V59.9377C96.415 62.0616 98.1434 63.79 100.267 63.79H113.333C115.457 63.79 117.185 62.0616 117.185 59.9377V28.885C117.185 26.7611 115.457 25.0327 113.333 25.0327ZM115.149 59.9377C115.149 60.9484 114.329 61.754 113.333 61.754H100.267C99.2567 61.754 98.451 60.9338 98.451 59.9377V59.6741H115.164V59.9377H115.149ZM115.149 57.6381H98.4364V31.1407H115.149V57.6381ZM115.149 29.1047H98.4364V28.885C98.4364 27.889 99.2567 27.0687 100.253 27.0687H113.318C114.314 27.0687 115.135 27.889 115.135 28.885V29.1047H115.149Z" fill="#F7812D"/>
<path d="M84.3162 14.5889C84.8728 14.5889 85.3416 14.1349 85.3416 13.5636V5.09735C85.3416 4.54074 84.8875 4.07202 84.3162 4.07202H16.4982C15.9416 4.07202 15.4729 4.5261 15.4729 5.09735V48.952C15.4729 49.5086 15.927 49.9773 16.4982 49.9773H65.8604C66.417 49.9773 66.8857 49.5233 66.8857 48.952C66.8857 48.3954 66.4316 47.9267 65.8604 47.9267H17.5236V6.12268H83.3055V13.5783C83.2909 14.1349 83.745 14.5889 84.3162 14.5889Z" fill="#F7812D"/>
<path d="M66.2265 61.71H12.8802C8.03189 61.71 3.78411 58.5608 2.334 54.0493H14.4621H65.8603C66.4169 54.0493 66.8856 53.5953 66.8856 53.024C66.8856 52.4674 66.4315 51.9987 65.8603 51.9987H14.4621C13.9348 51.9987 13.4368 51.5153 13.4368 50.9734V3.06133C13.4368 2.53402 13.9202 2.03601 14.4621 2.03601H86.3521C86.8794 2.03601 87.3775 2.51937 87.3775 3.06133V13.5636C87.3775 14.1202 87.8315 14.5889 88.4028 14.5889C88.974 14.5889 89.4281 14.1349 89.4281 13.5636V3.06133C89.4281 1.40616 88.022 0 86.3668 0H14.4621C12.807 0 11.4008 1.39151 11.4008 3.06133V50.988C11.4008 51.3395 11.4887 51.6764 11.6059 52.0133H1.01572C0.708126 52.0133 0.429823 52.1452 0.224758 52.3942C0.0343405 52.6285 -0.0388961 52.9361 0.0196939 53.2437C1.22079 59.3371 6.62572 63.7606 12.8656 63.7606H66.2118C66.7684 63.7606 67.2371 63.3066 67.2371 62.7353C67.2371 62.1641 66.7831 61.71 66.2265 61.71Z" fill="#F7812D"/>
</svg>
