<svg width="39" height="39" viewBox="0 0 39 39" fill="none" xmlns="http://www.w3.org/2000/svg">
<path fill-rule="evenodd" clip-rule="evenodd" d="M28.1386 20.5027C28.7109 19.9377 28.7086 19.0218 28.1305 18.4541L21.2491 11.6962C20.1488 10.5982 18.499 12.2446 19.5993 13.3425L24.1979 17.9277C24.4243 18.1534 24.3448 18.3364 24.0238 18.3364H11.3363C10.6903 18.3364 10.1667 18.8532 10.1667 19.5007C10.1667 20.1437 10.6892 20.665 11.3363 20.665H24.0238C24.3463 20.665 24.4236 20.8487 24.1979 21.0737L19.5993 25.6588C18.499 26.7562 20.1488 28.4032 21.2491 27.3052L28.1386 20.5027Z" fill="#FF8000"/>
<path d="M2 19.5C2 29.165 9.83502 37 19.5 37C29.165 37 37 29.165 37 19.5C37 9.83502 29.165 2 19.5 2C9.83502 2 2 9.83502 2 19.5Z" stroke="#FF8000" stroke-width="4"/>
</svg>
