<svg width="50" height="50" viewBox="0 0 50 50" fill="none" xmlns="http://www.w3.org/2000/svg">
<circle cx="25" cy="25" r="25" transform="rotate(-180 25 25)" fill="#1D2DBF"/>
<path d="M24.5 47C36.9262 47 47 36.9262 47 24.5C47 12.0738 36.9262 2 24.5 2C12.0739 2 2 12.0738 2 24.5C2 36.9261 12.0738 47 24.5 47ZM24.5 5.75003C34.8551 5.75003 43.25 14.1449 43.25 24.5C43.25 34.8551 34.8551 43.25 24.5 43.25C14.1449 43.25 5.75003 34.8551 5.75003 24.5C5.75003 14.1449 14.1449 5.75003 24.5 5.75003Z" fill="white"/>
<path d="M19.4241 35.2008C20.1564 35.9331 21.3436 35.9331 22.0758 35.2008L31.4508 25.8258C32.1831 25.0936 32.1831 23.9064 31.4508 23.1741L22.0758 13.7991C21.3436 13.0669 20.1564 13.0669 19.4241 13.7991C18.6919 14.5313 18.6919 15.7186 19.4241 16.4508L27.4733 24.5L19.4241 32.5492C18.6919 33.2814 18.6919 34.4685 19.4241 35.2008Z" fill="white"/>
</svg>
