<svg width="108" height="99" viewBox="0 0 108 99" fill="none" xmlns="http://www.w3.org/2000/svg">
<path d="M97.217 0H43.9313C37.9786 0 33.1483 4.84724 33.1483 10.8V35.8696H10.2557C4.60913 35.8696 0 40.4787 0 46.1424V76.2293C0 81.8929 4.60913 86.502 10.2557 86.502H13.3852V97.4381C13.3852 97.9313 13.6743 98.3905 14.1165 98.5946C14.2866 98.6797 14.4737 98.7137 14.6608 98.7137C14.9499 98.7137 15.2391 98.6116 15.4772 98.4246L29.8148 86.502H60.6161C66.2627 86.502 70.8718 81.8929 70.8718 76.2293V53.4387H76.5524L91.7405 66.0586C91.9786 66.2457 92.2677 66.3477 92.5568 66.3477C92.7439 66.3477 92.931 66.3137 93.1011 66.2287C93.5433 66.0246 93.8324 65.5654 93.8324 65.0721V53.4387H97.217C103.17 53.4387 108 48.5915 108 42.6387V10.8C108 4.84724 103.17 0 97.217 0ZM68.3206 76.2293C68.3206 80.4813 64.868 83.9509 60.6161 83.9509H29.3556C29.0494 83.9509 28.7773 84.0529 28.5392 84.24L15.9364 94.7168V85.2265C15.9364 84.5291 15.3581 83.9509 14.6608 83.9509H10.2557C6.00378 83.9509 2.55118 80.4813 2.55118 76.2293V46.1424C2.55118 41.8904 6.00378 38.4208 10.2557 38.4208H33.1483V42.6387C33.1483 48.5915 37.9786 53.4387 43.9313 53.4387H68.3206V76.2293ZM105.449 42.6387C105.449 47.1798 101.758 50.8876 97.217 50.8876H92.5568C91.8595 50.8876 91.2813 51.4658 91.2813 52.1632V62.3509L77.828 51.1767C77.6069 50.9896 77.3178 50.8876 77.0117 50.8876H43.9313C39.3902 50.8876 35.6995 47.1798 35.6995 42.6387V10.8C35.6995 6.2589 39.3902 2.55118 43.9313 2.55118H97.217C101.758 2.55118 105.449 6.2589 105.449 10.8V42.6387Z" fill="#F7812D"/>
<path d="M40.9721 58.5582L34.3901 53.3028C33.3016 52.4354 31.8389 52.2653 30.5973 52.8776C29.3388 53.4729 28.5564 54.7144 28.5564 56.1091V66.62C28.5564 68.0146 29.3388 69.2562 30.5973 69.8514C31.0906 70.0896 31.6348 70.2086 32.1621 70.2086C32.9614 70.2086 33.7438 69.9365 34.3901 69.4263L40.9721 64.1708C41.8225 63.4905 42.3158 62.47 42.3158 61.3645C42.3158 60.259 41.8225 59.2385 40.9721 58.5582ZM39.3734 62.1639L32.7914 67.4193C32.3321 67.7935 31.8729 67.6234 31.6858 67.5384C31.5158 67.4533 31.0906 67.1982 31.0906 66.6029V56.0921C31.0906 55.4968 31.4988 55.2417 31.6858 55.1566C31.7709 55.1056 31.941 55.0546 32.1451 55.0546C32.3321 55.0546 32.5532 55.1056 32.7743 55.2927L39.3564 60.5481C39.6966 60.8203 39.7476 61.1774 39.7476 61.3645C39.7646 61.5516 39.7136 61.8918 39.3734 62.1639Z" fill="#F7812D"/>
<path d="M70.1744 18.5049C65.8544 18.5049 62.3337 22.0255 62.3337 26.3455C62.3337 30.6655 65.8544 34.1861 70.1744 34.1861C74.4944 34.1861 78.015 30.6655 78.015 26.3455C78.015 22.0255 74.4944 18.5049 70.1744 18.5049ZM70.1744 31.635C67.249 31.635 64.8849 29.2539 64.8849 26.3455C64.8849 23.4372 67.266 21.0561 70.1744 21.0561C73.0997 21.0561 75.4638 23.4372 75.4638 26.3455C75.4638 29.2709 73.0827 31.635 70.1744 31.635Z" fill="#F7812D"/>
<path d="M87.1483 22.7736L85.0223 22.3484C84.6651 21.0388 84.1549 19.7972 83.4916 18.6747L84.6991 16.8548C85.2944 15.9874 85.1924 14.8139 84.444 14.0655L82.4541 12.0586C81.7057 11.3103 80.5322 11.1912 79.6648 11.7865L77.845 13.011C76.6544 12.3307 75.4128 11.8035 74.1713 11.4803L73.7461 9.32033C73.542 8.29986 72.6235 7.55151 71.5861 7.55151H68.7627C67.6912 7.55151 66.7898 8.31687 66.6198 9.32033L66.1946 11.4803C64.902 11.8205 63.6774 12.3307 62.5209 13.011L60.701 11.7865C59.8336 11.1912 58.6601 11.2932 57.9117 12.0416L55.9048 14.0485C55.1564 14.7969 55.0374 15.9704 55.6327 16.8208L56.8572 18.6577C56.1939 19.8142 55.6837 21.0558 55.3265 22.3314L53.2005 22.7566C52.1461 22.9436 51.3977 23.8451 51.3977 24.9166V27.7399C51.3977 28.7773 52.1461 29.6958 53.1835 29.8999L55.3265 30.308C55.6667 31.6006 56.1769 32.8252 56.8572 33.9817L55.6327 35.8016C55.0374 36.669 55.1394 37.8425 55.8878 38.6079L57.8947 40.5978C58.6431 41.3462 59.8166 41.4482 60.667 40.8699L62.5038 39.6624C63.6434 40.3257 64.885 40.8529 66.1775 41.1931L66.6027 43.3021C66.7898 44.3566 67.6912 45.1049 68.7627 45.1049H71.5861C72.6235 45.1049 73.542 44.3566 73.7461 43.3191L74.1542 41.1761C75.4638 40.8189 76.6884 40.3087 77.845 39.6284L79.6648 40.8529C80.5322 41.4482 81.7057 41.3462 82.4541 40.5978L84.444 38.6079C85.1924 37.8595 85.3114 36.686 84.7161 35.8186L83.4916 33.9988C84.1719 32.8592 84.6821 31.6177 85.0393 30.308L87.1823 29.8829C88.2027 29.6788 88.9511 28.7603 88.9511 27.7229V24.8995C88.9511 23.8621 88.1857 22.9606 87.1483 22.7736ZM86.3999 27.4677L84.342 27.8759C83.4916 28.029 82.8283 28.6583 82.6072 29.5087C82.301 30.7162 81.8248 31.8388 81.1955 32.8932C80.7533 33.6246 80.7703 34.56 81.2465 35.2573L82.4371 37.0432L80.8553 38.6249L79.0695 37.4173C78.3722 36.9581 77.4368 36.9241 76.7054 37.3833C75.6679 38.0126 74.5284 38.4888 73.3379 38.795C72.4875 38.9991 71.8412 39.6794 71.7051 40.4958L71.2969 42.5877H69.0519L68.6437 40.5298C68.4906 39.6964 67.8613 39.0161 67.0109 38.795C65.8034 38.4888 64.6809 38.0126 63.5924 37.3663C62.844 36.9411 61.9596 36.9751 61.2623 37.4343L59.4764 38.6249L57.8777 37.0432L59.0513 35.2914C59.5445 34.594 59.5785 33.6586 59.1193 32.8932C58.49 31.8388 58.0138 30.6992 57.7246 29.5087C57.5205 28.6753 56.8402 28.029 56.0238 27.8759L53.9319 27.4677V25.2227L56.0068 24.8145C56.8402 24.6614 57.5205 24.0151 57.7246 23.1818C58.0308 21.9912 58.49 20.8517 59.1193 19.7972C59.5615 19.0658 59.5445 18.1304 59.0683 17.4331L57.8777 15.6643L59.4594 14.0825L61.2283 15.2731C61.9256 15.7323 62.861 15.7493 63.5924 15.3241C64.6468 14.6948 65.7864 14.2186 66.9769 13.9125C67.8273 13.7084 68.4566 13.028 68.6097 12.2117L69.0349 10.1027H71.2799L71.6881 12.1777C71.8412 13.011 72.4875 13.6914 73.3209 13.8955C74.4774 14.1676 75.5999 14.6438 76.6884 15.2901C77.4198 15.7323 78.3552 15.7153 79.0525 15.2391L80.8383 14.0485L82.4201 15.6473L81.2295 17.4161C80.7703 18.1134 80.7363 18.9978 81.1785 19.7802C81.8078 20.8177 82.284 21.9572 82.5902 23.1477C82.8113 23.9981 83.4746 24.6274 84.2909 24.7805L86.3829 25.2057V27.4677H86.3999Z" fill="#F7812D"/>
</svg>
